<svg xmlns="http://www.w3.org/2000/svg" width="837" height="320" viewBox="0 0 837 320" version="1.1">
<defs>
  <linearGradient id="rgGold" x1="0" y1="0" x2="0" y2="1" gradientUnits="objectBoundingBox">
    <stop offset="0" stop-color="#fbe9ad"/>
    <stop offset="0.42" stop-color="#e8c766"/>
    <stop offset="0.68" stop-color="#cb9c34"/>
    <stop offset="1" stop-color="#a8741d"/>
  </linearGradient>
</defs>
	<path d="M 19.667 0.667 C 18.129 2.204, 19.255 5.620, 23.358 11.866 C 39.931 37.096, 46.878 62.933, 42.871 84.440 C 41.230 93.246, 39.053 101, 38.222 101.001 C 37.825 101.001, 37.440 102.042, 37.367 103.314 C 37.023 109.329, 23.577 132.326, 11.001 148.410 C 4.455 156.782, 1.011 165.042, 0.318 174.032 C -0.259 181.520, -0.119 182.311, 2.836 188.231 C 6.535 195.641, 10.663 198.895, 20.325 202.017 C 27.937 204.476, 30.344 206.342, 29.467 209.105 C 29.133 210.157, 29.340 211, 29.933 211 C 31.440 211, 31.257 215.915, 29.500 222.661 C 27.534 230.208, 27.558 241.266, 29.548 245.460 C 31.257 249.060, 34.737 251.128, 38.023 250.496 C 39.197 250.270, 42.241 248.704, 44.789 247.016 C 47.491 245.227, 50.063 244.211, 50.961 244.580 C 59.870 248.237, 60.995 248.344, 65.978 246.010 C 71.514 243.417, 72.555 243.620, 86.348 249.977 C 97.222 254.989, 109.392 258.993, 113.864 259.030 C 118.682 259.071, 116.666 260.180, 106.755 262.943 C 97.117 265.629, 90.036 266.511, 78.500 266.461 C 67.374 266.413, 62.021 264.264, 60.787 259.352 C 60.352 257.620, 58.345 254.754, 56.327 252.983 C 52.954 250.021, 52.260 249.809, 47.692 250.350 C 42.421 250.974, 39.670 252.805, 37.398 257.198 C 33.763 264.227, 37.240 270.343, 46.630 273.441 C 49.859 274.506, 52.593 275.423, 52.706 275.478 C 52.820 275.534, 52.257 278.711, 51.456 282.539 C 50.655 286.367, 50 292.936, 50 297.137 C 50 304.092, 50.290 305.207, 53.250 309.624 C 58.076 316.825, 63.465 319.448, 73.500 319.477 C 82.409 319.503, 79.669 320.632, 115 302.369 C 143.598 287.586, 158.206 276.821, 166.360 264.518 C 169.095 260.392, 169.766 256.591, 167.957 255.473 C 166.909 254.826, 162.233 257.978, 156.324 263.317 C 148.243 270.618, 132.507 278.939, 101.689 292.205 C 77.955 302.422, 72.096 303.742, 66.396 300.158 C 63.049 298.054, 61.927 294.781, 62.100 287.625 C 62.323 278.397, 62.083 278.570, 75.542 277.939 C 89.889 277.266, 100.380 274.337, 115.355 266.822 C 129.247 259.850, 133 257.217, 133 254.439 C 133 252.394, 132.373 252.066, 127.250 251.431 C 117.786 250.259, 104.918 245.567, 89.911 237.816 L 75.745 230.500 65.122 230.412 C 59.280 230.363, 53.433 230.041, 52.128 229.696 C 50.767 229.335, 47.383 229.902, 44.183 231.027 C 37.539 233.362, 36.637 232.685, 37.481 226 C 37.794 223.525, 38.295 216.550, 38.595 210.500 C 39.273 196.843, 38.397 195.075, 28.453 190.020 C 16.892 184.143, 12.999 179.679, 13.001 172.300 C 13.002 165.842, 18.185 156.666, 33.890 135.312 C 38.550 128.976, 51.370 103.549, 54.467 94.500 C 58.095 83.899, 59.072 66.754, 56.605 57 C 52.901 42.359, 46.100 29.063, 34.610 14 C 25.606 2.196, 21.659 -1.326, 19.667 0.667 M 176 121.516 C 156.616 124.805, 139.782 131.691, 130.591 140.091 C 127.669 142.761, 124.919 144.620, 124.479 144.223 C 124.039 143.825, 123.981 144.026, 124.349 144.669 C 124.717 145.313, 124.413 146.445, 123.672 147.185 C 122.932 147.925, 121.050 150.774, 119.489 153.516 C 115.724 160.132, 114.790 173.841, 117.540 182.120 C 120.972 192.454, 133.261 202.791, 147.421 207.256 C 151.781 208.631, 154.668 210.004, 153.895 210.336 C 153.128 210.665, 154.300 210.674, 156.500 210.355 C 161.563 209.622, 165.216 207.360, 164.803 205.215 C 164.627 204.302, 161.148 201.719, 157.072 199.475 C 146.945 193.899, 141.973 189.312, 138.536 182.374 C 130.158 165.463, 141.267 147.962, 166.377 138.510 C 170.046 137.129, 174.793 135.607, 176.927 135.128 L 180.808 134.256 180.526 149.878 C 180.372 158.470, 179.518 173.825, 178.630 184 C 177.742 194.175, 176.515 209.025, 175.904 217 C 175.293 224.975, 174.382 232.005, 173.879 232.623 C 173.377 233.241, 173.242 234.467, 173.580 235.348 C 173.918 236.229, 173.251 238.476, 172.097 240.343 C 169.755 244.133, 169.389 247.989, 171.200 249.800 C 172.003 250.603, 176.454 251, 184.643 251 C 196.162 251, 196.979 250.868, 198.443 248.777 C 200.563 245.751, 200.398 242.670, 198 240.500 C 196.225 238.894, 196.003 237.442, 196.029 227.595 C 196.045 221.493, 196.497 210.650, 197.034 203.500 C 197.570 196.350, 198.451 183.750, 198.991 175.500 C 199.530 167.250, 200.411 157.800, 200.947 154.500 C 201.484 151.200, 202.207 144.969, 202.556 140.654 L 203.189 132.808 212.131 133.154 C 218.708 133.408, 221.325 133.897, 222.022 135 C 222.604 135.921, 222.975 136.035, 222.985 135.294 C 222.996 134.377, 223.898 134.410, 226.750 135.431 C 233.367 137.800, 236 139.288, 236 140.661 C 236 141.397, 236.839 142, 237.864 142 C 238.905 142, 240.932 143.737, 242.453 145.932 C 245.746 150.684, 246.917 159.690, 244.999 165.504 C 243.378 170.414, 235.763 178.073, 229.190 181.404 C 223.206 184.436, 213.001 187.014, 207.762 186.817 C 203.035 186.640, 199 189.280, 199 192.552 C 199 193.930, 200.366 197.762, 202.034 201.068 C 203.703 204.374, 204.756 207.624, 204.374 208.290 C 203.992 208.955, 204.040 209.174, 204.481 208.775 C 204.922 208.377, 207.151 211.077, 209.435 214.775 C 220.974 233.462, 225.957 240.089, 235.933 250.022 C 258.688 272.680, 290.785 289.379, 324 295.841 C 334.195 297.824, 348.566 299.616, 350.408 299.133 C 350.908 299.002, 351.689 299.481, 352.143 300.197 C 352.739 301.136, 352.974 301.162, 352.985 300.292 C 352.996 299.426, 355.766 299.103, 362.750 299.152 C 389.311 299.339, 415.387 292.847, 439.894 279.945 C 447.146 276.127, 449.573 275.259, 450.274 276.231 C 450.928 277.139, 451.034 277.016, 450.645 275.800 C 450.270 274.627, 451.138 273.460, 453.451 272.030 C 456.761 269.985, 458 268.183, 458 265.418 C 458 263.401, 453.639 263.634, 449.210 265.888 C 443.904 268.588, 429.538 273.537, 421.432 275.458 C 410.798 277.978, 409.685 278.219, 407 278.584 C 386.648 281.352, 379.546 281.985, 368.743 281.992 C 355.837 282, 336.607 279.749, 334.476 277.980 C 333.838 277.451, 333.095 277.239, 332.824 277.509 C 332.337 277.996, 327.715 277.164, 319 275.020 C 305.436 271.684, 283.375 260.999, 270.500 251.531 C 262.004 245.284, 239.368 223.299, 240.384 222.283 C 240.716 221.951, 240.161 221.101, 239.151 220.393 C 237.440 219.195, 227.595 205.115, 225.168 200.395 C 224.183 198.480, 224.464 198.178, 228.293 197.036 C 242.085 192.922, 253.511 185.372, 259.152 176.644 C 265.369 167.024, 266.541 159.813, 263.556 149.543 C 260.905 140.425, 249.354 129.555, 237.957 125.454 C 225.229 120.873, 219.167 119.997, 201.090 120.122 C 191.416 120.189, 180.125 120.816, 176 121.516 M 239 129 C 240.958 130.266, 242.282 130.266, 241.500 129 C 241.160 128.450, 240.121 128.007, 239.191 128.015 C 237.734 128.029, 237.707 128.165, 239 129 M 569 130.956 C 567.625 131.435, 563.842 132.625, 560.593 133.600 C 546.259 137.901, 529.716 153.248, 522.879 168.587 C 521.674 171.289, 520.580 173.950, 520.447 174.500 C 516.516 190.774, 516.047 199.209, 518.500 209.486 C 520.305 217.045, 525.984 228.435, 530.236 233.021 C 537.330 240.674, 547.467 247.253, 555.672 249.528 C 557.227 249.960, 558.950 250.446, 559.500 250.609 C 572.143 254.349, 580.270 254.793, 592.400 252.406 C 603.505 250.221, 613.722 245.078, 619.703 238.662 C 622.341 235.832, 624.800 233.513, 625.167 233.508 C 625.533 233.504, 626.208 233.090, 626.667 232.590 C 627.151 232.061, 626.976 231.981, 626.250 232.399 C 624.599 233.349, 624.606 233.314, 627.500 226.192 C 629.738 220.684, 630 218.630, 630 206.579 C 630 199.175, 629.591 192.865, 629.090 192.556 C 627.181 191.376, 581.534 191.644, 579.284 192.848 C 576.640 194.263, 575.331 199.881, 576.944 202.895 C 578.005 204.877, 578.871 205.001, 591.785 205.011 C 599.328 205.017, 607.238 205.309, 609.362 205.660 L 613.225 206.298 612.544 212.318 C 610.634 229.199, 600.682 236.637, 581.213 235.735 C 569.906 235.211, 568.869 234.987, 562.379 231.671 C 555.013 227.907, 549.540 222.670, 545.732 215.742 C 541.067 207.254, 539.480 200.972, 539.608 191.500 C 539.872 171.957, 550.112 154.476, 565.500 147.298 C 570.873 144.792, 572.597 144.500, 582 144.500 C 594.710 144.500, 598.928 146.195, 608.499 155.148 C 612.276 158.681, 615.643 161, 616.995 161 C 619.726 161, 627.006 153.980, 626.985 151.368 C 626.965 148.948, 626.458 148.302, 620.574 143.205 C 615.545 138.849, 611.131 136.513, 600.495 132.577 C 595.702 130.804, 592.167 130.328, 582.995 130.220 C 576.673 130.146, 570.375 130.477, 569 130.956 M 579.250 132.716 C 580.763 132.945, 583.237 132.945, 584.750 132.716 C 586.263 132.487, 585.025 132.300, 582 132.300 C 578.975 132.300, 577.737 132.487, 579.250 132.716 M 184.441 134.468 C 183.374 135.276, 182.950 135.936, 183.500 135.936 C 184.050 135.936, 185.374 135.276, 186.441 134.468 C 187.509 133.661, 187.932 133, 187.382 133 C 186.832 133, 185.509 133.661, 184.441 134.468 M 134.385 139.171 C 130.064 142.423, 129.475 143.005, 130.550 142.959 C 131.569 142.916, 138.813 137, 137.847 137 C 137.530 137, 135.972 137.977, 134.385 139.171 M 551.559 139.532 C 550.491 140.339, 550.041 140.986, 550.559 140.968 C 551.076 140.951, 552.374 140.276, 553.441 139.468 C 554.509 138.661, 554.959 138.014, 554.441 138.032 C 553.924 138.049, 552.626 138.724, 551.559 139.532 M 638.622 139.865 C 637.089 141.560, 636.938 145.902, 636.979 187.294 C 637.018 225.904, 636.788 233.555, 635.474 237.424 C 632.961 244.828, 634.196 246, 644.512 246 C 652.418 246, 653.058 245.841, 654.596 243.494 C 655.885 241.526, 656.014 240.399, 655.196 238.244 C 654.562 236.573, 653.922 217.187, 653.559 188.650 C 653.195 159.999, 652.569 141.063, 651.947 139.900 C 650.504 137.204, 641.053 137.179, 638.622 139.865 M 76.013 140.976 C 75.044 142.787, 75.586 143.768, 80.329 148.774 C 92.254 161.362, 93.316 171.938, 82.826 173.641 C 80.705 173.985, 77.903 173.558, 75.452 172.516 C 70.695 170.495, 60.369 170.400, 55.746 172.335 C 52.118 173.854, 45 181.218, 45 183.453 C 45 184.249, 44.319 185.282, 43.486 185.748 C 41.012 187.132, 47.155 197.535, 51.839 199.893 C 58.530 203.261, 67.249 200.840, 68.659 195.223 C 69.684 191.137, 67.907 189.460, 62.885 189.774 C 57.427 190.116, 55.039 188.797, 56.595 186.300 C 58.541 183.179, 63.241 183.050, 70.674 185.913 C 76.308 188.084, 78.425 188.426, 82.794 187.875 C 90.065 186.958, 95.134 183.378, 98.377 176.871 C 104.345 164.896, 98.935 149.574, 86.359 142.831 C 78.944 138.856, 77.305 138.562, 76.013 140.976 M 641.029 140.961 C 638.590 142.504, 640.290 142.808, 643.500 141.403 C 645.774 140.408, 646.016 140.083, 644.500 140.060 C 643.400 140.044, 641.838 140.449, 641.029 140.961 M 541.437 147.250 L 538.500 150.500 541.750 147.563 C 543.538 145.948, 545 144.485, 545 144.313 C 545 143.540, 544.175 144.221, 541.437 147.250 M 88 147.500 C 88.685 148.325, 89.672 149, 90.194 149 C 90.716 149, 90.468 148.325, 89.643 147.500 C 88.818 146.675, 87.831 146, 87.449 146 C 87.067 146, 87.315 146.675, 88 147.500 M 275.198 147.673 C 273.382 148.568, 271.234 150.581, 270.424 152.147 C 268.959 154.980, 268.819 163.226, 270.250 162.344 C 270.663 162.090, 271 162.347, 271 162.915 C 271 164.593, 276.613 167, 280.527 167 C 285.516 167, 290 162.562, 290 157.624 C 290 152.802, 288.146 149.127, 284.855 147.425 C 281.332 145.603, 279.291 145.656, 275.198 147.673 M 277.094 148.921 C 276.132 149.530, 276.823 149.779, 279.282 149.709 C 281.258 149.653, 282.652 149.246, 282.379 148.804 C 281.722 147.742, 278.856 147.805, 277.094 148.921 M 530.980 158.524 C 530.284 159.362, 529.968 160.301, 530.276 160.610 C 530.585 160.919, 531.340 160.233, 531.954 159.086 C 533.264 156.638, 532.778 156.358, 530.980 158.524 M 421.465 169.060 C 409.647 170.227, 397.058 178.324, 397.459 184.500 C 397.729 188.652, 399.525 191.643, 402.162 192.332 C 403.853 192.774, 405.240 192.015, 407.943 189.167 C 412.932 183.911, 416.009 182.200, 421.876 181.422 C 430.368 180.296, 436 184.279, 436 191.412 C 436 194.071, 436.068 194.040, 423.500 197.118 C 415.600 199.053, 405.408 203.578, 401.035 207.092 C 395.458 211.574, 392 218.862, 392 226.131 C 392 232.982, 393.204 236.531, 396.814 240.319 C 401.395 245.128, 405.544 246.500, 415.500 246.500 C 423.639 246.500, 425.028 246.210, 430.023 243.469 L 435.546 240.438 437.849 243.219 C 439.935 245.738, 440.763 246, 446.642 246 C 455.593 246, 458.948 244.098, 458.990 239 L 459.010 236.500 461.255 239.246 C 462.490 240.756, 466.419 243.165, 469.988 244.600 C 475.812 246.942, 477.510 247.171, 486.599 246.835 C 495.762 246.495, 497.183 246.175, 501.580 243.456 C 510.703 237.816, 515.499 227.425, 513.037 218.631 C 510.824 210.727, 505.586 205.954, 490.963 198.519 C 474.132 189.961, 471.212 185.654, 479.544 181.680 C 485.424 178.876, 493.605 180.072, 499.546 184.603 C 503.532 187.644, 504.375 187.610, 506.976 184.303 C 508.426 182.459, 509.003 180.500, 508.799 178.106 C 508.536 175.026, 507.902 174.298, 503.527 172.053 C 499.123 169.792, 497.347 169.500, 488.027 169.500 C 478.480 169.500, 476.960 169.765, 471.701 172.348 C 463.898 176.179, 460.736 181.056, 460.190 190.098 C 459.463 202.143, 464.863 208.017, 483.007 214.911 C 492.463 218.504, 497 222.768, 497 228.062 C 497 231.098, 491.359 233.996, 485.500 233.970 C 478.765 233.940, 473.416 231.347, 470.090 226.500 C 466.926 221.888, 464.585 221.697, 461.500 225.798 C 459.306 228.715, 459.305 228.719, 459.125 232.923 C 459.001 235.831, 458.984 235.839, 456 234.350 L 453 232.854 453 212.637 C 453 190.339, 451.857 183.124, 447.400 177.280 C 442.549 170.921, 433.065 167.915, 421.465 169.060 M 678.892 171.297 C 667.033 176.296, 663.090 180.222, 664.450 185.673 C 666.140 192.443, 671.445 194.032, 675.220 188.900 C 681.768 179.997, 698.960 178.505, 702.028 186.574 C 703.885 191.457, 703.931 193.890, 702.176 194.376 C 701.254 194.631, 697.350 195.599, 693.500 196.528 C 677.363 200.421, 666.499 206.218, 663.100 212.750 C 662.456 213.988, 661.019 215, 659.906 215 C 658.790 215, 658.164 215.456, 658.510 216.016 C 658.856 216.575, 659.556 216.775, 660.066 216.459 C 660.576 216.144, 660.514 217.147, 659.928 218.688 C 658.785 221.695, 659.029 238.100, 660.206 237.373 C 660.594 237.133, 661.651 238.064, 662.554 239.443 C 663.458 240.821, 666.615 243.132, 669.571 244.578 C 674.361 246.922, 675.843 247.163, 683.222 246.800 C 690.993 246.418, 695.786 245.007, 700.214 241.798 C 701.662 240.748, 702.405 241.014, 705.018 243.518 C 707.736 246.121, 708.800 246.470, 713.818 246.402 C 720.134 246.316, 723.390 245.008, 725.062 241.884 C 726.427 239.333, 725.469 235, 723.540 235 C 722.758 235, 721.754 234.438, 721.309 233.750 C 720.864 233.063, 720.275 222.150, 720 209.500 L 719.500 186.500 716.500 180.515 C 712.306 172.149, 707.393 169.679, 694.082 169.245 C 685.820 168.976, 683.728 169.259, 678.892 171.297 M 756.500 170.192 C 754.850 170.761, 751.813 172.546, 749.750 174.160 C 746.285 176.871, 746 176.940, 746 175.070 C 746 171.728, 742.058 169.893, 736.512 170.653 C 729.338 171.637, 727.664 173.795, 728.498 180.984 C 729.764 191.892, 729.497 234.203, 728.136 238.201 C 727.205 240.938, 727.163 242.436, 727.974 243.951 C 728.925 245.728, 730.028 245.998, 736.285 245.985 C 740.253 245.976, 744.144 245.562, 744.930 245.064 C 746.119 244.312, 746.323 239.885, 746.135 218.830 C 745.929 195.706, 746.072 193.202, 747.782 190.077 C 750.492 185.123, 755.291 182.786, 761.758 183.271 C 772.670 184.090, 774.381 189.084, 773.654 218 C 773.384 228.725, 773.014 239.300, 772.832 241.500 L 772.500 245.500 781.266 245.789 C 788.569 246.030, 790.136 245.810, 790.649 244.472 C 790.988 243.589, 791.318 230.784, 791.383 216.016 C 791.498 189.725, 791.546 189.116, 793.723 186.797 C 794.945 185.495, 798.049 183.867, 800.619 183.179 C 804.896 182.035, 805.684 182.123, 809.895 184.215 C 813.774 186.141, 814.778 187.269, 816.286 191.397 C 817.839 195.651, 818.030 199.072, 817.741 217.397 C 817.558 229.004, 817.056 239.445, 816.626 240.601 C 816.090 242.042, 816.363 243.220, 817.494 244.351 C 819.811 246.668, 833.167 246.708, 835.080 244.404 C 837.799 241.128, 835.830 197.456, 832.425 185.500 C 828.496 171.708, 812.086 165, 797.779 171.338 C 794.875 172.624, 791.882 174.424, 791.128 175.338 C 789.532 177.270, 790.961 177.594, 792.947 175.750 C 794.012 174.762, 794.146 174.761, 793.591 175.745 C 793.205 176.429, 791.959 177.487, 790.824 178.094 C 789.330 178.894, 788.947 178.895, 789.438 178.100 C 790.334 176.651, 788.717 176.683, 787.256 178.144 C 786.398 179.002, 785.423 178.467, 783.348 176.001 C 779.355 171.257, 773.764 169.033, 766 169.101 C 762.425 169.132, 758.150 169.623, 756.500 170.192 M 273.250 171.031 C 272.012 171.529, 270.971 172.513, 270.934 173.218 C 270.898 173.923, 270.926 188.257, 270.995 205.071 C 271.086 227.243, 270.785 236.378, 269.900 238.321 C 268.974 240.354, 268.954 241.603, 269.818 243.500 C 270.902 245.880, 271.363 246, 279.420 246 C 284.786 246, 288.146 245.573, 288.603 244.834 C 288.999 244.192, 289.228 227.655, 289.110 208.084 C 288.921 176.440, 288.716 172.362, 287.257 171.250 C 285.382 169.821, 276.603 169.683, 273.250 171.031 M 295.571 171.571 C 294.707 172.436, 294 173.708, 294 174.398 C 294 175.088, 296.292 181.693, 299.094 189.076 C 301.896 196.459, 305.013 204.975, 306.021 208 C 307.028 211.025, 309.724 218.675, 312.012 225 C 314.300 231.325, 316.829 238.350, 317.632 240.611 C 319.375 245.514, 322.547 247.409, 326.072 245.651 C 327.919 244.731, 329.916 240.574, 335.276 226.488 C 344.274 202.848, 344.847 201.399, 344.930 202.076 C 344.968 202.393, 347.283 208.693, 350.073 216.076 C 352.864 223.459, 356.232 232.595, 357.557 236.378 C 360.584 245.015, 361.554 246.178, 365.415 245.801 C 367.950 245.554, 368.901 244.697, 370.750 241 C 374.858 232.785, 398 176.811, 398 175.091 C 398 172.429, 395.902 170.997, 392.050 171.032 C 388.141 171.067, 385 172.916, 385 175.182 C 385 177.332, 381.921 186, 381.156 186.002 C 380.795 186.003, 380.408 187.320, 380.296 188.929 C 380.184 190.537, 377.744 197.554, 374.874 204.521 C 369.718 217.037, 369.638 217.157, 368.239 214.487 C 367.460 213, 367.046 210.932, 367.318 209.891 C 367.591 208.849, 367.396 208.255, 366.886 208.571 C 365.721 209.291, 364.432 206.193, 358.118 187.500 C 352.376 170.498, 351.842 169.923, 343.297 171.574 L 338.500 172.500 338.199 178.278 C 337.994 182.227, 337.544 183.836, 336.779 183.364 C 336.052 182.914, 335.882 183.250, 336.293 184.321 C 336.844 185.757, 331.624 203.891, 329.045 209.500 C 328.539 210.600, 327.812 212.608, 327.428 213.962 C 326.840 216.040, 326.274 215.103, 323.804 207.962 C 322.194 203.308, 319.821 196.575, 318.530 193 C 317.239 189.425, 315.403 183.800, 314.449 180.500 C 311.582 170.586, 310.974 170, 303.548 170 C 299.059 170, 296.673 170.470, 295.571 171.571 M 425.250 170.689 C 426.212 170.941, 427.788 170.941, 428.750 170.689 C 429.712 170.438, 428.925 170.232, 427 170.232 C 425.075 170.232, 424.288 170.438, 425.250 170.689 M 490 171 C 491.375 171.440, 493.400 171.814, 494.500 171.830 L 496.500 171.859 494.500 171 C 493.400 170.527, 491.375 170.154, 490 170.170 L 487.500 170.199 490 171 M 695.500 170.528 C 696.050 170.783, 698.862 171.603, 701.750 172.349 C 707.125 173.739, 708.777 173.610, 704.750 172.115 C 702.327 171.216, 693.841 169.760, 695.500 170.528 M 762.083 170.360 C 762.313 170.558, 764.975 170.996, 768 171.334 C 771.674 171.745, 773.002 171.631, 772 170.990 C 770.639 170.120, 761.104 169.514, 762.083 170.360 M 299.269 172.693 C 300.242 172.947, 301.592 172.930, 302.269 172.656 C 302.946 172.382, 302.150 172.175, 300.500 172.195 C 298.850 172.215, 298.296 172.439, 299.269 172.693 M 391 173 C 392.958 174.266, 394.282 174.266, 393.500 173 C 393.160 172.450, 392.121 172.007, 391.191 172.015 C 389.734 172.029, 389.707 172.165, 391 173 M 735.083 172.358 C 736.126 173.255, 742.993 173.797, 742.463 172.941 C 742.144 172.423, 740.259 172, 738.274 172 C 736.290 172, 734.854 172.161, 735.083 172.358 M 752.208 174.142 C 750.398 175.301, 749.157 176.491, 749.452 176.785 C 749.747 177.080, 750.787 176.598, 751.764 175.713 C 752.742 174.829, 754.657 173.660, 756.021 173.116 C 757.384 172.572, 757.825 172.106, 757 172.080 C 756.175 172.055, 754.019 172.982, 752.208 174.142 M 470 175.089 C 468.339 176.448, 468.172 176.787, 469.500 176.101 C 472.762 174.415, 474.570 173.030, 473.500 173.038 C 472.950 173.041, 471.375 173.965, 470 175.089 M 216.500 188 C 215.239 188.542, 215.055 188.859, 216 188.859 C 216.825 188.859, 218.400 188.473, 219.500 188 C 220.761 187.458, 220.945 187.141, 220 187.141 C 219.175 187.141, 217.600 187.527, 216.500 188 M 706.195 191.500 C 706.215 193.150, 706.439 193.704, 706.693 192.731 C 706.947 191.758, 706.930 190.408, 706.656 189.731 C 706.382 189.054, 706.175 189.850, 706.195 191.500 M 620.250 193.689 C 621.212 193.941, 622.788 193.941, 623.750 193.689 C 624.712 193.438, 623.925 193.232, 622 193.232 C 620.075 193.232, 619.288 193.438, 620.250 193.689 M 433 208.500 C 433 209.325, 432.212 209.993, 431.250 209.985 C 429.754 209.972, 429.718 209.828, 431 209 C 433.242 207.551, 431.933 207.787, 425.555 209.981 C 414.514 213.780, 411 217.287, 411 224.508 C 411 233.728, 424.709 235.560, 433.403 227.502 C 435.830 225.253, 436 224.504, 436 216.048 C 436 208.672, 435.723 207, 434.500 207 C 433.675 207, 433 207.675, 433 208.500 M 693.081 209.565 C 684.007 212.671, 680.201 215.275, 678.387 219.617 C 676.474 224.196, 676.622 225.397, 679.527 228.850 C 684.175 234.374, 693.561 234.198, 699.903 228.469 L 703.574 225.152 703.537 216.343 C 703.507 209.311, 703.197 207.482, 702 207.280 C 701.175 207.140, 697.161 208.169, 693.081 209.565 M 66.500 232 C 65.070 232.614, 66.068 232.851, 70 232.830 C 74.197 232.808, 74.908 232.611, 73 232 C 69.761 230.963, 68.914 230.963, 66.500 232 M 413.500 278.992 C 411.850 279.439, 408.767 280.102, 406.648 280.466 C 404.529 280.831, 403.023 281.356, 403.301 281.634 C 404.037 282.370, 415.952 279.886, 416.583 278.865 C 416.877 278.389, 416.979 278.041, 416.809 278.090 C 416.639 278.140, 415.150 278.546, 413.500 278.992" stroke="none" fill="url(#rgGold)" fill-rule="evenodd"/>
</svg>